<svg xmlns="http://www.w3.org/2000/svg" viewBox="0 0 64 72" width="64" height="72" shape-rendering="crispEdges">
  <!-- Black Silhouette Outline -->
  <path d="M 22 2 H 42 V 6 H 48 V 12 H 52 V 28 H 48 V 34 H 44 V 38 H 50 V 50 H 46 V 62 H 42 V 68 H 36 V 60 H 28 V 68 H 22 V 62 H 18 V 50 H 14 V 38 H 20 V 34 H 16 V 28 H 12 V 12 H 16 V 6 H 22 Z" fill="#000000"/>

  <!-- Head Base (Red) -->
  <rect x="22" y="6" width="20" height="24" fill="#e63946"/>
  <rect x="16" y="10" width="32" height="16" fill="#e63946"/>
  <rect x="20" y="4" width="24" height="4" fill="#e63946"/>
  <rect x="18" y="24" width="28" height="6" fill="#c92a37"/>

  <!-- Head Highlight & Webbing Lines -->
  <rect x="22" y="6" width="20" height="2" fill="#ff7582"/>
  <line x1="32" y1="4" x2="32" y2="30" stroke="#8a1824" stroke-width="1.5"/>
  <line x1="16" y1="18" x2="48" y2="18" stroke="#8a1824" stroke-width="1.5"/>
  <path d="M 24 10 Q 32 14 40 10" stroke="#8a1824" stroke-width="1.2" fill="none"/>
  <path d="M 20 22 Q 32 26 44 22" stroke="#8a1824" stroke-width="1.2" fill="none"/>

  <!-- Big White Eyes with Thick Black Outline -->
  <!-- Left Eye -->
  <polygon points="18,12 28,14 27,24 19,21" fill="#000000"/>
  <polygon points="19,13 27,15 26,22 20,20" fill="#ffffff"/>
  <!-- Right Eye -->
  <polygon points="46,12 36,14 37,24 45,21" fill="#000000"/>
  <polygon points="45,13 37,15 38,22 44,20" fill="#ffffff"/>

  <!-- Body / Torso -->
  <!-- Red Chest Center -->
  <rect x="26" y="32" width="12" height="16" fill="#e63946"/>
  <!-- Tiny Black Spider Emblem -->
  <rect x="31" y="36" width="2" height="4" fill="#000000"/>
  <rect x="29" y="37" width="6" height="1" fill="#000000"/>
  <rect x="29" y="39" width="6" height="1" fill="#000000"/>

  <!-- Blue Sides & Arms -->
  <rect x="20" y="34" width="6" height="14" fill="#1b4992"/>
  <rect x="38" y="34" width="6" height="14" fill="#1b4992"/>
  <rect x="16" y="36" width="4" height="12" fill="#e63946"/>
  <rect x="44" y="36" width="4" height="12" fill="#e63946"/>
  <!-- Red Gloves/Hands -->
  <rect x="14" y="44" width="6" height="6" fill="#e63946"/>
  <rect x="44" y="44" width="6" height="6" fill="#e63946"/>

  <!-- Belt / Waist -->
  <rect x="24" y="48" width="16" height="3" fill="#e63946"/>

  <!-- Blue Pants/Legs -->
  <rect x="22" y="51" width="8" height="10" fill="#1b4992"/>
  <rect x="34" y="51" width="8" height="10" fill="#1b4992"/>

  <!-- Red Boots -->
  <rect x="20" y="60" width="10" height="7" fill="#e63946"/>
  <rect x="34" y="60" width="10" height="7" fill="#e63946"/>
  <!-- Boot Soles -->
  <rect x="19" y="65" width="11" height="2" fill="#000000"/>
  <rect x="34" y="65" width="11" height="2" fill="#000000"/>
</svg>
