<svg xmlns="http://www.w3.org/2000/svg" viewBox="0 0 48 64" role="img" aria-label="Rumored signal marker">
  <defs><linearGradient id="rumorFill" x1="10" y1="4" x2="37" y2="55" gradientUnits="userSpaceOnUse"><stop stop-color="#fff"/><stop offset=".5" stop-color="#b8c8d8"/><stop offset="1" stop-color="#63758a"/></linearGradient></defs>
  <path d="M24 3C12 3 5 11 5 23c0 15 19 37 19 37s19-22 19-37C43 11 36 3 24 3Z" fill="#020814"/>
  <path d="M24 6C14 6 8 13 8 23c0 11 12 28 16 33 4-5 16-22 16-33C40 13 34 6 24 6Z" fill="url(#rumorFill)"/>
  <circle cx="24" cy="23" r="12" fill="#10243a" stroke="#fff" stroke-width="2"/>
  <circle cx="24" cy="23" r="8.5" fill="none" stroke="#9ec7df" stroke-dasharray="2 2" stroke-width="1.3"/>
  <path d="M20.1 19.1c.5-2.2 2.2-3.4 4.3-3.4 2.6 0 4.5 1.6 4.5 4 0 3.3-3.7 3.8-3.7 6.2" fill="none" stroke="#fff" stroke-linecap="square" stroke-width="2.2"/>
  <rect x="23" y="28.6" width="2.5" height="2.5" fill="#fff"/>
  <path d="M18 36h12l-6 8z" fill="#425268" opacity=".75"/>
</svg>
